<?xml version="1.0" standalone="no"?>
<!DOCTYPE svg PUBLIC "-//W3C//DTD SVG 20010904//EN"
 "http://www.w3.org/TR/2001/REC-SVG-20010904/DTD/svg10.dtd">
<svg version="1.0" xmlns="http://www.w3.org/2000/svg"
 width="131.000000pt" height="131.000000pt" viewBox="0 0 131.000000 131.000000"
 preserveAspectRatio="xMidYMid meet">
<metadata>
Created by potrace 1.14, written by Peter Selinger 2001-2017
</metadata>
<g transform="translate(0.000000,131.000000) scale(0.100000,-0.100000)"
fill="#000000" stroke="none">
<path d="M510 1224 c-211 -55 -380 -222 -435 -429 -19 -72 -21 -211 -4 -280
45 -189 183 -349 359 -418 171 -67 319 -60 489 24 151 75 271 226 310 393 17
68 15 210 -4 278 -55 212 -225 378 -440 433 -74 19 -202 18 -275 -1z m252 -75
c171 -36 326 -178 378 -347 24 -76 27 -226 7 -293 -77 -253 -320 -410 -574
-371 -199 31 -360 174 -420 371 -20 67 -17 217 7 293 51 165 198 304 363 344
66 16 171 17 239 3z"/>
<path d="M759 1038 c-75 -43 -102 -153 -59 -238 22 -43 46 -60 84 -60 33 0 34
-24 2 -45 -50 -33 -111 21 -137 122 -14 58 -20 68 -44 74 -35 10 -50 4 -64
-27 -12 -27 2 -68 33 -93 9 -8 21 -31 26 -52 6 -21 21 -51 34 -66 l24 -28 -33
-38 -32 -37 -17 25 c-9 14 -29 30 -43 36 -37 14 -67 -9 -104 -82 -26 -53 -33
-60 -52 -54 -45 14 -62 11 -65 -13 -4 -28 56 -92 87 -92 12 0 41 18 64 39 l43
40 12 -46 c8 -29 27 -60 51 -85 34 -33 44 -38 87 -38 28 0 65 9 90 20 54 27
134 112 170 181 24 48 28 69 34 184 5 86 12 143 23 169 35 81 12 173 -54 208
-45 24 -115 23 -160 -4z"/>
</g>
</svg>
